# xmcd
#
# Track frame offsets:
#	150
#	24732
#	29747
#	40736
#	55240
#	72849
#	86531
#	97509
#	109261
#	122723
#	137874
#	153988
#	165113
#	178313
#
# Disc length: 2555 seconds
#
# Revision: 1
# Processed by: cddbd v1.5.2PL0 Copyright (c) Steve Scherf et al.
# Submitted via: audiograbber 1.83.01
#
DISCID=b309f90e
DTITLE=Big Bill Broonzy - Part 1
DYEAR=1957
DGENRE=Blues
TTITLE0=Key To The Highway
TTITLE1=Mindin´My Own Business
TTITLE2=Saturday Evening Blues
TTITLE3=Southbound Train
TTITLE4=Tell Me What Kind Of Man Jesus Is
TTITLE5=Swing Low, Sweet Chariot
TTITLE6=Plowhand Blues
TTITLE7=Joe Turner Blues
TTITLE8=Boogie Woogie Blues
TTITLE9=I Ain´t  Gon Be Treated This Away
TTITLE10=Making´  My Getaway
TTITLE11=Hollerin´ The Blues
TTITLE12=See See Rider
TTITLE13=I´m Gonna Move To The Outskirts Of Town
EXTD=
EXTT0=
EXTT1=
EXTT2=
EXTT3=
EXTT4=
EXTT5=
EXTT6=
EXTT7=
EXTT8=
EXTT9=
EXTT10=
EXTT11=
EXTT12=
EXTT13=
PLAYORDER=
